<svg xmlns="http://www.w3.org/2000/svg" viewBox="0 0 117.33 26.19" id="klarna-black" width="117.33" height="26.19"><g data-name="Lager 1"><g data-name="Group 1287"><g data-name="logo white" clip-path="url(#klarna-black_a)"><path d="M20.65 0h-5.78a14.77 14.77 0 01-6 11.92l-2.24 1.71 8.86 12.07h7.28l-8.16-11.11A20.45 20.45 0 0020.65 0z" data-name="Path 656"/><path d="M0 0h5.91v25.7H0z" data-name="Rectangle 1560"/><path d="M24.48 0h5.57v25.7h-5.57z" data-name="Rectangle 1561"/><path d="M78.91 7.44a6.4 6.4 0 00-5.49 2.48v-2h-5.29V25.7h5.37v-9.33a3.73 3.73 0 013.45-4h.54c2.33 0 3.67 1.4 3.67 4v9.38h5.32V14.4c-.01-4.14-3.3-6.96-7.57-6.96z" data-name="Path 657"/><path d="M46.89 7.93v1.14a9.38 9.38 0 10-5.28 17.12 9.22 9.22 0 005.28-1.63v1.14h5.31V7.93zm-4.84 13.44a4.57 4.57 0 114.82-4.56 4.7 4.7 0 01-4.82 4.56z" data-name="Path 658"/><path d="M60.44 10.23v-2.3H55V25.7h5.46v-8.29c0-2.8 3-4.3 5.13-4.3h.06V7.93a6.68 6.68 0 00-5.21 2.3z" data-name="Path 659"/><path d="M103 7.93v1.14a9.38 9.38 0 10-5.28 17.12 9.22 9.22 0 005.28-1.63v1.14h5.31V7.93zm-4.84 13.44a4.57 4.57 0 114.84-4.56 4.7 4.7 0 01-4.82 4.56z" data-name="Path 660"/><g data-name="Group 137"><path d="M112.43 8.44A.4.4 0 00112 8h-.56v1.38h.24v-.5h.32l.2.5h.26l-.23-.55a.4.4 0 00.2-.39zm-.46.21h-.26v-.41h.29a.2.2 0 01.23.21c0 .12 0 .2-.23.2z" data-name="Path 661"/><path d="M111.89 7.46a1.27 1.27 0 101.27 1.27 1.27 1.27 0 00-1.27-1.27zm0 2.31a1 1 0 01-1-1 1 1 0 012 0 1 1 0 01-1 1z" data-name="Path 662"/></g><path d="M114 19.4a3.34 3.34 0 102.365.982A3.35 3.35 0 00114 19.4z" data-name="Path 663"/></g></g></g></svg>