<svg xmlns="http://www.w3.org/2000/svg" viewBox="0 0 64.296 38.577" id="mastercard" width="64.296" height="38.577"><g clip-path="url(#mastercard_a)" fill="#555"><path d="M45.007 38.577a19.184 19.184 0 01-12.064-4.263 19.46 19.46 0 01-4.225-4.729 19.152 19.152 0 01-2.5-5.928l.213-1.2a.737.737 0 00-.172.038 1.522 1.522 0 01-.265.06 19.3 19.3 0 01-.276-3.266v-.341l.1-.577h1.125l.306-1.939h-1.021l.2-1.225h-.278a19.307 19.307 0 0112.2-14.049A19.01 19.01 0 0144.905 0a19.459 19.459 0 017.594 1.521 19.28 19.28 0 01-7.491 37.056zm12.961-22.35a3.1 3.1 0 00-2.424 1.454 5.474 5.474 0 00-.762 1.56 6.331 6.331 0 00-.284 1.885 4.267 4.267 0 00.625 2.3 2.234 2.234 0 001.926 1.072 2.752 2.752 0 001.939-.816l-.1.714h2.04l1.531-9.8-2.143-.1-.408 2.755a2.836 2.836 0 00-1.94-1.024zm-15.513-1.939a4.114 4.114 0 00-1.724.38 4.51 4.51 0 00-1.5 1.126 6.533 6.533 0 00-1.467 4.414 4.862 4.862 0 00.919 3.1 3.056 3.056 0 001.148.875 3.966 3.966 0 001.607.311 9.21 9.21 0 001.939-.306l.408-2.245a4.945 4.945 0 01-1.73.507 1.875 1.875 0 01-1.557-.714 2.7 2.7 0 01-.485-1.633 4.611 4.611 0 01.791-2.806 2.317 2.317 0 011.863-.97 3.425 3.425 0 011.837.612l.306-2.143a7.284 7.284 0 00-2.355-.508zm-12.21 2.028a3.011 3.011 0 00-2.453 1.384 5.587 5.587 0 00-.952 3.219 3.408 3.408 0 001.178 2.86 3.934 3.934 0 002.4.714 5.381 5.381 0 002.143-.306l.408-1.939a6.075 6.075 0 01-2.139.508 1.954 1.954 0 01-1.617-.575 1.346 1.346 0 01-.22-1.058h4.175a13.325 13.325 0 00.306-1.837 3.212 3.212 0 00-.638-1.977 2.807 2.807 0 00-2.318-.98 2.83 2.83 0 00-.273-.013zm21.4.115l-1.327 7.96h2.245v-.1c.112-.614.2-1.2.3-1.765.362-2.268.623-3.907 1.526-3.907a.963.963 0 01.321.061 7.3 7.3 0 01.594-2.063c.043-.1.083-.191.121-.284h-.417c-.908 0-1.626 1.212-1.633 1.224l.2-1.122zm-3.776 2.653a4.537 4.537 0 00-2.487.651 2.721 2.721 0 00-1.186 2.411 2.241 2.241 0 00.7 1.812 1.97 1.97 0 001.238.434 2.788 2.788 0 002.007-.813c.069-.063.114-.105.135-.105l-.1.817h1.832l.817-5.613a2.378 2.378 0 00-.572-1.817 2.915 2.915 0 00-2.184-.734 7.28 7.28 0 00-2.449.408l-.306 1.735a6.187 6.187 0 012.243-.407c.689 0 1.327.087 1.327.715 0 .4-.1.509-.1.51zm-13.374-2.653l-1.327 7.96h2.25v-.1c.112-.615.205-1.2.3-1.767.362-2.269.623-3.908 1.526-3.908a.962.962 0 01.321.061 7.3 7.3 0 01.594-2.064c.043-.1.083-.191.12-.283h-.408c-.911 0-1.626 1.212-1.633 1.224l.2-1.122zm12.655 6.226a.794.794 0 01-.817-.817 1.058 1.058 0 01.344-.8 2.2 2.2 0 011.493-.421c.306.1.306.1.408.1a3.041 3.041 0 01-.255 1.085 1.293 1.293 0 01-1.173.853zm10.614-.2a.963.963 0 01-.829-.434 2.148 2.148 0 01-.293-1.2c0-1.562.671-2.654 1.633-2.654.756 0 1.123.568 1.123 1.735a3.692 3.692 0 01-.4 1.7 1.432 1.432 0 01-1.234.848zm-26.433-3.066h-2.245a2.051 2.051 0 01.242-.753 1.21 1.21 0 011.084-.676.862.862 0 01.664.255 1.459 1.459 0 01.258 1.127v.045z" data-name="Subtraction 1" opacity=".598"/><path d="M19.289 38.577a19.295 19.295 0 01-7.621-37.013A19.1 19.1 0 0119.085 0c.1 0 .1 0 .1.2a19.46 19.46 0 017.095 1.318A18.138 18.138 0 0132.148 5.2a17.408 17.408 0 00-1.939 1.939h3.776a9.63 9.63 0 011.531 2.041h-6.838c-.111.194-.222.38-.329.561a12.568 12.568 0 00-.794 1.481h8.981a11.994 11.994 0 01.817 2.041H26.739l-.113.389a12.146 12.146 0 00-.382 1.55h-1.852c-.012.065-1.225 6.747-1.225 7.552a1.535 1.535 0 001.633 1.739 3.156 3.156 0 001.327-.306l.306-1.735a.737.737 0 00-.172.038 1.235 1.235 0 01-.338.064.778.778 0 01-.691-.27.355.355 0 01-.023-.343l.612-3.572h1.123l.306-1.939h-1.021l.187-1.122h11.651l.013.086c.047.306.1.623.14.935h-.358c-.909 0-1.626 1.212-1.633 1.224l.2-1.122H34.5l-1.327 7.96h2.245v-.1c.112-.615.205-1.2.3-1.767.362-2.269.623-3.908 1.526-3.908a.962.962 0 01.321.061 7.3 7.3 0 01.594-2.064c.027-.063.056-.127.082-.191.042.3.075.555.1.787a7.465 7.465 0 00-.575 3 5.629 5.629 0 00.436 2.309 23 23 0 01-.742 3H26.841a11.983 11.983 0 00.816 2.041h9.083a13.131 13.131 0 01-1.122 2.041H28.78a23.574 23.574 0 001.429 1.939h3.98a18.431 18.431 0 01-1.936 2.038 20.2 20.2 0 01-5.907 3.648 19.011 19.011 0 01-7.057 1.352zm10.957-22.261a3.011 3.011 0 00-2.453 1.384 5.587 5.587 0 00-.952 3.219 3.408 3.408 0 001.174 2.858 3.934 3.934 0 002.4.714 5.381 5.381 0 002.143-.306l.408-1.939a6.075 6.075 0 01-2.139.508 1.954 1.954 0 01-1.617-.575 1.345 1.345 0 01-.22-1.058h4.185a13.321 13.321 0 00.306-1.837 3.212 3.212 0 00-.638-1.977 2.807 2.807 0 00-2.322-.982 5.291 5.291 0 00-.275-.009zm-12.692 5.83l-.306 1.837c.135.271.925.408 2.347.408h.133a3.766 3.766 0 001.733-.365 2.373 2.373 0 001.2-2.289 2.244 2.244 0 00-.549-1.615 3.219 3.219 0 00-1.083-.683c-.457-.206-.818-.369-.818-.764 0-.481.367-.714 1.123-.714.3 0 1.417.1 1.429.1l.306-1.837a7.852 7.852 0 00-1.939-.2 3.627 3.627 0 00-2.1.561 2.4 2.4 0 00-.957 2.092 2.118 2.118 0 00.576 1.549 3.936 3.936 0 001.133.742c.471.233.843.418.843.771 0 .59-.666.714-1.225.714a6.729 6.729 0 01-1.837-.306zM14.7 19.084a4.538 4.538 0 00-2.488.651 2.721 2.721 0 00-1.186 2.411 2.241 2.241 0 00.7 1.812 1.97 1.97 0 001.237.434 2.788 2.788 0 002.008-.813c.069-.063.114-.105.135-.105l-.1.817h1.834l.816-5.613a2.475 2.475 0 00-.7-1.9 2.934 2.934 0 00-2.054-.65 7.286 7.286 0 00-2.449.408l-.306 1.735a6.188 6.188 0 012.243-.407c.689 0 1.327.087 1.327.715 0 .4-.1.509-.1.51zm-5.41-2.14l-1.125 7.345h2.143l1.633-9.8H8.573l-2.041 6.024-.1-6.021H3.47l-1.633 9.8h1.939L5 16.941l.2 7.348h1.434zm4.594 5.712a.793.793 0 01-.816-.817 1.058 1.058 0 01.344-.8 2.2 2.2 0 011.492-.421 1.636 1.636 0 00.408.1 3.041 3.041 0 01-.255 1.085 1.294 1.294 0 01-1.177.854zm17.452-3.266h-2.25a2.051 2.051 0 01.242-.753 1.21 1.21 0 011.084-.676.862.862 0 01.664.255 1.459 1.459 0 01.258 1.127v.045z" data-name="Subtraction 2"/></g></svg>

