<svg xmlns="http://www.w3.org/2000/svg" viewBox="0 0 89.436 27.531" id="visa" width="89.436" height="27.531"><g id="visa_visa-pay-logo" clip-path="url(#visa_clip-path)"><g id="visa_Group_142" data-name="Group 142" transform="translate(31.265 .458)" opacity=".62"><g id="visa_Group_141" data-name="Group 141"><path id="visa_Path_699" d="M21.267 16.8l-4.545 26.672h7.269L28.54 16.8z" data-name="Path 699" transform="translate(-16.722 -16.799)" fill="#555"/></g></g><g id="visa_Group_144" data-name="Group 144" transform="translate(7.221 .482)" opacity=".62"><g id="visa_Group_143" data-name="Group 143"><path id="visa_Path_700" d="M21.811 16.818l-7.12 18.19-.759-2.747c-1.4-3.309-5.39-8.062-10.07-11.057l6.51 22.244 7.692-.013 11.449-26.623z" data-name="Path 700" transform="translate(-3.862 -16.812)" fill="#555"/></g></g><g id="visa_Group_146" data-name="Group 146" transform="translate(0 .23)"><g id="visa_Group_145" data-name="Group 145"><path id="visa_Path_701" d="M14.531 18.844c-.423-1.625-1.647-2.109-3.167-2.167H.093L0 17.208c8.771 2.128 14.574 7.254 16.983 13.419z" data-name="Path 701" transform="translate(0 -16.677)" fill="#555"/></g></g><g id="visa_Group_148" data-name="Group 148" transform="translate(43.084)" opacity=".62"><g id="visa_Group_147" data-name="Group 147"><path id="visa_Path_702" d="M37.776 22.126a13.421 13.421 0 015.441 1.021l.656.309.983-5.781a18.764 18.764 0 00-6.512-1.12c-7.183 0-12.247 3.618-12.286 8.8-.047 3.831 3.607 5.97 6.366 7.247 2.833 1.309 3.782 2.141 3.769 3.309-.022 1.786-2.259 2.6-4.347 2.6A15.259 15.259 0 0125 37.121l-.937-.426-1.023 5.97a23.023 23.023 0 008.1 1.421c7.642 0 12.607-3.575 12.66-9.115.032-3.031-1.907-5.344-6.108-7.241-2.543-1.238-4.1-2.06-4.083-3.309.002-1.11 1.322-2.295 4.167-2.295z" data-name="Path 702" transform="translate(-23.043 -16.554)" fill="#555"/></g></g><g id="visa_Group_150" data-name="Group 150" transform="translate(63.335 .488)" opacity=".62"><g id="visa_Group_149" data-name="Group 149"><path id="visa_Path_703" d="M54.093 16.815h-5.617c-1.744 0-3.042.475-3.809 2.214L33.874 43.473h7.634s1.245-3.287 1.528-4.007c.836 0 8.253.011 9.309.011.217.931.886 4 .886 4h6.744zm-8.965 17.192c.6-1.531 2.9-7.455 2.9-7.455-.039.073.593-1.543.969-2.547l.49 2.3 1.685 7.7z" data-name="Path 703" transform="translate(-33.874 -16.815)" fill="#555"/></g></g></g></svg>